<svg width="26" height="26" viewBox="0 0 26 26" fill="none" xmlns="http://www.w3.org/2000/svg">
<path d="M19.5005 14.2997H14.2997V19.5005H11.7003V14.2997H6.49952V11.7003H11.7003V6.49952H14.2997V11.7003H19.5005V14.2997ZM13 0C11.2927 0 9.60205 0.336397 8.02544 0.989663C6.44785 1.64293 5.01458 2.60042 3.8075 3.8075C1.36896 6.24506 0 9.55232 0 13C0 16.4477 1.36896 19.7549 3.8075 22.1925C5.01458 23.3996 6.44785 24.3571 8.02544 25.0103C9.60205 25.6636 11.2927 26 13 26C16.4477 26 19.7549 24.631 22.1925 22.1925C24.631 19.7549 26 16.4477 26 13C26 11.2927 25.6636 9.60205 25.0103 8.02544C24.3571 6.44785 23.3996 5.01458 22.1925 3.8075C20.9854 2.60042 19.5522 1.64293 17.9746 0.989663C16.3979 0.336397 14.7073 0 13 0Z" fill="white"/>
</svg>
