<svg width="64" height="64" viewBox="0 0 64 64" fill="none" xmlns="http://www.w3.org/2000/svg">
<path fill-rule="evenodd" clip-rule="evenodd" d="M32.5837 18.5839C32.7695 18.3977 32.9902 18.2499 33.2331 18.1491C33.4761 18.0482 33.7366 17.9963 33.9997 17.9963C34.2627 17.9963 34.5232 18.0482 34.7662 18.1491C35.0092 18.2499 35.2299 18.3977 35.4157 18.5839L47.4157 30.5839C47.6019 30.7697 47.7497 30.9904 47.8505 31.2334C47.9513 31.4764 48.0032 31.7368 48.0032 31.9999C48.0032 32.263 47.9513 32.5235 47.8505 32.7664C47.7497 33.0094 47.6019 33.2301 47.4157 33.4159L35.4157 45.4159C35.0401 45.7915 34.5308 46.0024 33.9997 46.0024C33.4686 46.0024 32.9592 45.7915 32.5837 45.4159C32.2081 45.0404 31.9971 44.531 31.9971 43.9999C31.9971 43.4688 32.2081 42.9595 32.5837 42.5839L43.1717 31.9999L32.5837 21.4159C32.3974 21.2301 32.2496 21.0094 32.1488 20.7664C32.048 20.5235 31.9961 20.263 31.9961 19.9999C31.9961 19.7368 32.048 19.4764 32.1488 19.2334C32.2496 18.9904 32.3974 18.7697 32.5837 18.5839Z" fill="#9C9C9C"/>
<path fill-rule="evenodd" clip-rule="evenodd" d="M16 32C16 31.4696 16.2107 30.9609 16.5858 30.5858C16.9609 30.2107 17.4696 30 18 30H44C44.5304 30 45.0391 30.2107 45.4142 30.5858C45.7893 30.9609 46 31.4696 46 32C46 32.5304 45.7893 33.0391 45.4142 33.4142C45.0391 33.7893 44.5304 34 44 34H18C17.4696 34 16.9609 33.7893 16.5858 33.4142C16.2107 33.0391 16 32.5304 16 32Z" fill="#9C9C9C"/>
</svg>
