<svg width="64" height="64" viewBox="0 0 64 64" fill="none" xmlns="http://www.w3.org/2000/svg">
<path d="M6.9877 38.9867C3.13427 38.9867 0 35.8539 0 32C0 28.1481 3.13427 25.0133 6.9877 25.0133C10.8411 25.0133 13.9754 28.1479 13.9754 32C13.9752 35.8539 10.8411 38.9867 6.9877 38.9867Z" fill="#293039"/>
<path d="M31.6073 38.9867C27.7539 38.9867 24.6196 35.8539 24.6196 32C24.6196 28.1481 27.7539 25.0133 31.6073 25.0133C35.4601 25.0133 38.595 28.1479 38.595 32C38.5949 35.8539 35.4601 38.9867 31.6073 38.9867Z" fill="#293039"/>
<path d="M57.0124 38.9867C53.1596 38.9867 50.0247 35.8539 50.0247 32C50.0247 28.1481 53.1594 25.0133 57.0124 25.0133C60.8653 25.0133 64.0001 28.1479 64.0001 32C64.0001 35.8539 60.8653 38.9867 57.0124 38.9867Z" fill="#293039"/>
</svg>
