<svg width="376" height="376" viewBox="0 0 376 376" fill="none" xmlns="http://www.w3.org/2000/svg">
<g clip-path="url(#clip0)">
<path d="M41.013 228.825C18.396 228.825 0 210.438 0 187.818C0 165.21 18.396 146.811 41.013 146.811C63.63 146.811 82.026 165.209 82.026 187.818C82.025 210.438 63.63 228.825 41.013 228.825Z" fill="#293039"/>
<path d="M185.513 228.825C162.896 228.825 144.5 210.438 144.5 187.818C144.5 165.21 162.896 146.811 185.513 146.811C208.126 146.811 226.526 165.209 226.526 187.818C226.525 210.438 208.126 228.825 185.513 228.825Z" fill="#293039"/>
<path d="M334.623 228.825C312.01 228.825 293.61 210.438 293.61 187.818C293.61 165.21 312.009 146.811 334.623 146.811C357.237 146.811 375.636 165.209 375.636 187.818C375.636 210.438 357.237 228.825 334.623 228.825Z" fill="#293039"/>
</g>
<defs>
<clipPath id="clip0">
<rect width="375.636" height="375.635" fill="white"/>
</clipPath>
</defs>
</svg>
