<svg width="512" height="512" viewBox="0 0 512 512" fill="none" xmlns="http://www.w3.org/2000/svg">
<g clip-path="url(#clip0)">
<path d="M384 298.667L320 298.667L320 213.334C320 201.552 310.449 192.002 298.667 192.001L213.334 192.001C201.551 192 192 201.551 192 213.333L192 298.666L128 298.666C110.42 298.666 100.386 318.736 110.933 332.799L238.933 503.466C247.466 514.844 264.533 514.844 273.066 503.466L401.066 332.8C411.614 318.737 401.58 298.668 384 298.667ZM256 455.111L170.667 341.333L213.334 341.333C225.116 341.333 234.667 331.782 234.667 320L234.667 234.667L277.334 234.667L277.334 320C277.334 331.782 286.885 341.333 298.667 341.333L341.334 341.334L256 455.111Z" fill="#293039"/>
<path d="M213.333 170.667L298.666 170.667C310.448 170.668 319.999 161.116 319.999 149.334C319.999 137.552 310.448 128.002 298.666 128.001L213.333 128.001C201.551 128 192 137.551 192 149.333C192 161.115 201.551 170.667 213.333 170.667Z" fill="#293039"/>
<path d="M213.333 106.667L298.666 106.667C310.448 106.667 319.999 97.1165 319.999 85.3345C320 73.5515 310.449 64.0005 298.667 64.0005L213.334 64.0005C201.551 64.0005 192 73.5515 192 85.3335C192 97.1155 201.551 106.667 213.333 106.667Z" fill="#293039"/>
<path d="M213.333 42.6675L298.666 42.6675C310.448 42.6675 319.999 33.1165 319.999 21.3345C320 9.55148 310.449 0.000478474 298.667 0.000476414L213.334 0.000461494C201.551 0.000459434 192 9.55146 192 21.3335C192 33.1155 201.551 42.6675 213.333 42.6675Z" fill="#293039"/>
</g>
<defs>
<clipPath id="clip0">
<rect x="512" y="512" width="512" height="512" transform="rotate(-180 512 512)" fill="white"/>
</clipPath>
</defs>
</svg>
