<svg width="64" height="64" viewBox="0 0 64 64" fill="none" xmlns="http://www.w3.org/2000/svg">
<g clip-path="url(#clip0)">
<path d="M48 37.3335L40 37.3335L40 26.6669C40 25.1941 38.8061 24.0002 37.3334 24.0002L26.6667 24.0002C25.1939 24.0001 24 25.194 24 26.6667L24 37.3334L16 37.3334C13.8025 37.3334 12.5482 39.8421 13.8666 41.6L29.8666 62.9334C30.9332 64.3556 33.0666 64.3556 34.1332 62.9334L50.1332 41.6C51.4517 39.8421 50.1975 37.3335 48 37.3335ZM32 56.889L21.3334 42.6667L26.6667 42.6667C28.1395 42.6667 29.3334 41.4729 29.3334 40.0001L29.3334 29.3335L34.6667 29.3335L34.6667 40.0001C34.6667 41.4729 35.8606 42.6667 37.3334 42.6667L42.6667 42.6667L32 56.889Z" fill="#293039"/>
<path d="M26.6666 21.3335L37.3333 21.3335C38.806 21.3335 39.9999 20.1396 39.9999 18.6669C39.9999 17.1941 38.806 16.0002 37.3333 16.0002L26.6666 16.0002C25.1939 16.0001 24 17.194 24 18.6667C24 20.1395 25.1939 21.3335 26.6666 21.3335Z" fill="#293039"/>
<path d="M26.6666 13.3335L37.3333 13.3335C38.806 13.3335 39.9999 12.1396 39.9999 10.6669C40 9.194 38.8061 8.00012 37.3334 8.00012L26.6668 8.00012C25.1939 8.00012 24 9.19399 24 10.6667C24 12.1395 25.1939 13.3335 26.6666 13.3335Z" fill="#293039"/>
<path d="M26.6666 5.33349L37.3332 5.33349C38.806 5.33349 39.9999 4.13962 39.9999 2.66687C40 1.194 38.8061 0.000124659 37.3334 0.000124402L26.6667 0.000122537C25.1939 0.000122279 24 1.19399 24 2.66674C24 4.13949 25.1939 5.33349 26.6666 5.33349Z" fill="#293039"/>
</g>
<defs>
<clipPath id="clip0">
<rect x="64" y="64" width="64" height="64" transform="rotate(-180 64 64)" fill="white"/>
</clipPath>
</defs>
</svg>
