<svg width="64" height="64" viewBox="0 0 64 64" fill="none" xmlns="http://www.w3.org/2000/svg">
<path d="M49.4622 0.615326C48.7212 0.602532 47.9853 0.738895 47.2981 1.0163C46.6109 1.29371 45.9866 1.70649 45.4622 2.2301L43.0006 4.76794L59.2295 21.0756L61.6911 18.5403C62.2221 18.0101 62.6433 17.3804 62.9307 16.6873C63.2181 15.9942 63.366 15.2512 63.366 14.5009C63.366 13.7505 63.2181 13.0075 62.9307 12.3144C62.6433 11.6213 62.2221 10.9917 61.6911 10.4615L53.5385 2.3064C52.4551 1.22845 50.9905 0.620862 49.4622 0.615326V0.615326ZM40.2314 7.00056L36.384 10.6929L53.3071 27.6159L57.2308 23.9999L40.2314 7.00056V7.00056ZM33.92 13.3858L7.31078 39.7661C7.00846 39.9209 6.74242 40.138 6.53025 40.4032C6.31809 40.6684 6.16463 40.9756 6.08001 41.3046L0.384015 60.6153C0.255407 61.0324 0.242978 61.4767 0.348065 61.9003C0.453153 62.324 0.671777 62.7109 0.98041 63.0196C1.28904 63.3282 1.676 63.5468 2.09963 63.6519C2.52326 63.757 2.96753 63.7446 3.38463 63.6159L22.6929 57.9224C23.1312 57.857 23.5428 57.6715 23.8822 57.3865C24.2215 57.1014 24.4753 56.728 24.6154 56.3076L50.8455 30.3064L47.232 26.6929L20.3077 53.6935L9.46217 56.8443L7.15324 54.5378L10.4616 43.2319L37.1545 16.6153L33.92 13.3833V13.3858ZM39.7662 19.3083L12.768 46.3852L16.6892 47.2295L17.2283 50.8479L44.3052 23.8449L39.7662 19.3083Z" fill="#293039"/>
</svg>
