<svg width="64" height="64" viewBox="0 0 64 64" fill="none" xmlns="http://www.w3.org/2000/svg">
<path d="M57.9843 14.3052L56.5712 10.0693C56.0331 8.45605 54.5288 7.37207 52.8286 7.37207H40.9521V3.50537C40.9521 1.57275 39.3808 0 37.4487 0H26.5727C24.6411 0 23.0693 1.57275 23.0693 3.50537V7.37207H11.1933C9.49262 7.37207 7.98823 8.45605 7.45014 10.0693L6.03706 14.3052C5.71528 15.2695 5.87836 16.3374 6.4726 17.1621C7.06684 17.9868 8.02827 18.4795 9.04487 18.4795H10.5219L13.7729 58.6802C14.0146 61.6631 16.5458 64 19.5366 64H45.1445C48.1347 64 50.6665 61.6631 50.9077 58.6797L54.1586 18.4795H54.9765C55.9931 18.4795 56.9545 17.9868 57.5488 17.1626C58.143 16.3379 58.3061 15.2695 57.9843 14.3052V14.3052ZM26.8193 3.75H37.2021V7.37207H26.8193V3.75ZM47.1699 58.3774C47.0849 59.4277 46.1953 60.25 45.1445 60.25H19.5366C18.4858 60.25 17.5961 59.4277 17.5112 58.3774L14.2841 18.4795H50.3964L47.1699 58.3774ZM9.84907 14.7295L11.0078 11.2559C11.0341 11.1758 11.1088 11.1221 11.1933 11.1221H52.8286C52.913 11.1221 52.9873 11.1758 53.0141 11.2559L54.1728 14.7295H9.84907Z" fill="#293039"/>
<path d="M41.1893 58.2446C41.2225 58.2466 41.2553 58.2471 41.2885 58.2471C42.2792 58.2471 43.1073 57.4707 43.1591 56.4697L44.9198 22.6699C44.9735 21.6358 44.1786 20.7534 43.1449 20.6997C42.1083 20.6445 41.2289 21.4404 41.1747 22.4746L39.4144 56.2744C39.3607 57.3086 40.1552 58.1909 41.1893 58.2446V58.2446Z" fill="#293039"/>
<path d="M20.9458 56.474C21.0005 57.4736 21.8276 58.247 22.8164 58.247C22.8506 58.247 22.8857 58.246 22.9204 58.2441C23.9541 58.1879 24.7466 57.3041 24.6904 56.2699L22.8462 22.4701C22.79 21.436 21.9062 20.6435 20.8721 20.7001C19.8384 20.7563 19.0459 21.6401 19.1021 22.6742L20.9458 56.474Z" fill="#293039"/>
<path d="M32.0317 58.2471C33.0674 58.2471 33.9067 57.4077 33.9067 56.3721V22.5723C33.9067 21.5366 33.0674 20.6973 32.0317 20.6973C30.9961 20.6973 30.1567 21.5366 30.1567 22.5723V56.3721C30.1567 57.4077 30.9961 58.2471 32.0317 58.2471Z" fill="#293039"/>
</svg>
