<svg width="64" height="64" viewBox="0 0 64 64" fill="none" xmlns="http://www.w3.org/2000/svg">
<path d="M53.4667 29.3335H10.5333C9.13421 29.3335 8 30.4677 8 31.8668V32.1335C8 33.5326 9.13421 34.6668 10.5333 34.6668H53.4667C54.8658 34.6668 56 33.5326 56 32.1335V31.8668C56 30.4677 54.8658 29.3335 53.4667 29.3335Z" fill="white"/>
<path d="M53.4667 42.6665H10.5333C9.13421 42.6665 8 43.8007 8 45.1998V45.4665C8 46.8656 9.13421 47.9998 10.5333 47.9998H53.4667C54.8658 47.9998 56 46.8656 56 45.4665V45.1998C56 43.8007 54.8658 42.6665 53.4667 42.6665Z" fill="white"/>
<path d="M53.4667 16H10.5333C9.13421 16 8 17.1342 8 18.5333V18.8C8 20.1991 9.13421 21.3333 10.5333 21.3333H53.4667C54.8658 21.3333 56 20.1991 56 18.8V18.5333C56 17.1342 54.8658 16 53.4667 16Z" fill="white"/>
</svg>
