<svg width="32" height="32" viewBox="0 0 32 32" fill="none" xmlns="http://www.w3.org/2000/svg">
<path d="M26.776 11.8235L7.268 0.211522C7.04024 0.0757668 6.78057 0.00280835 6.51544 7.94664e-05C6.2503 -0.00264942 5.98919 0.0649487 5.75868 0.195987C5.52818 0.327026 5.33653 0.516822 5.20326 0.746041C5.06998 0.975259 4.99985 1.23571 5 1.50086V24.2595C4.99986 24.5231 5.06917 24.782 5.20096 25.0103C5.33274 25.2386 5.52234 25.4281 5.75066 25.5597C5.97898 25.6914 6.23797 25.7606 6.50154 25.7603C6.7651 25.76 7.02395 25.6903 7.252 25.5582L7.24533 25.5622L26.7507 14.4155C26.977 14.2851 27.1654 14.098 27.2974 13.8726C27.4294 13.6473 27.5005 13.3914 27.5036 13.1303C27.5067 12.8691 27.4417 12.6116 27.3151 12.3832C27.1884 12.1548 27.0045 11.9633 26.7813 11.8275L26.7747 11.8235H26.776ZM7.00133 23.3982V2.37952L25.016 13.1035L7.00133 23.3982Z" fill="white"/>
</svg>
