<svg width="32" height="32" viewBox="0 0 32 32" fill="none" xmlns="http://www.w3.org/2000/svg">
<path d="M16 12C14.9413 12.007 13.9279 12.4307 13.1793 13.1793C12.4307 13.9279 12.007 14.9413 12 16C12 18.1893 13.8107 20 16 20C18.188 20 20 18.1893 20 16C20 13.812 18.188 12 16 12Z" fill="#8D8D8D"/>
<path d="M16.0001 6.66675C5.82273 6.66675 2.76406 15.4894 2.73606 15.5787L2.59473 16.0001L2.73473 16.4214C2.76406 16.5107 5.82273 25.3334 16.0001 25.3334C26.1774 25.3334 29.2361 16.5107 29.2641 16.4214L29.4054 16.0001L29.2654 15.5787C29.2361 15.4894 26.1774 6.66675 16.0001 6.66675ZM16.0001 22.6667C8.86539 22.6667 6.10139 17.5387 5.43206 16.0001C6.10406 14.4561 8.86939 9.33341 16.0001 9.33341C23.1347 9.33341 25.8987 14.4614 26.5681 16.0001C25.8961 17.5441 23.1307 22.6667 16.0001 22.6667V22.6667Z" fill="#8D8D8D"/>
</svg>
