<svg width="34" height="34" viewBox="0 0 34 34" fill="none" xmlns="http://www.w3.org/2000/svg">
<path d="M16.1834 2.8335C15.8378 2.8335 15.5401 3.0842 15.4834 3.42562L15.0822 5.84115C14.3926 5.95968 13.726 6.14294 13.0845 6.3807L11.5239 4.48812C11.3043 4.22037 10.9222 4.15062 10.6219 4.32487L9.21078 5.14111C8.91044 5.31395 8.77905 5.67863 8.90088 6.00163L9.75863 8.29264C9.22676 8.73589 8.7354 9.22725 8.29216 9.75911L6.00114 8.90137C5.67814 8.77953 5.31346 8.91093 5.14063 9.21126L4.32438 10.6224C4.15013 10.9227 4.21988 11.3048 4.48763 11.5244L6.38021 13.085C6.14245 13.7265 5.95919 14.3931 5.84066 15.0827L3.42513 15.4839C3.08371 15.542 2.83301 15.8368 2.83301 16.1839V17.8164C2.83301 18.1621 3.08371 18.4598 3.42513 18.5164L5.84066 18.9176C5.95919 19.6072 6.14245 20.2738 6.38021 20.9154L4.48763 22.4759C4.21988 22.6955 4.15155 23.0776 4.32438 23.3779L5.14063 24.7891C5.31346 25.0894 5.67814 25.2208 6.00114 25.099L8.29216 24.2412C8.7354 24.7731 9.22676 25.2644 9.75863 25.7077L8.90088 27.9987C8.77905 28.3231 8.91186 28.6864 9.21078 28.8592L10.6219 29.6755C10.9222 29.8483 11.3043 29.7785 11.5239 29.5122L13.0817 27.6196C13.724 27.8578 14.3918 28.0405 15.0822 28.1592L15.4834 30.5747C15.5415 30.9161 15.8363 31.1668 16.1834 31.1668H17.8159C18.1616 31.1668 18.4593 30.9161 18.516 30.5747L18.9172 28.1592C19.6067 28.0406 20.2733 27.8574 20.9149 27.6196L22.4754 29.5122C22.695 29.78 23.0771 29.8483 23.3774 29.6755L24.7886 28.8592C25.0889 28.6864 25.2203 28.3217 25.0985 27.9987L24.2407 25.7077C24.7726 25.2644 25.2639 24.7731 25.7072 24.2412L27.9982 25.099C28.3226 25.2208 28.6859 25.088 28.8587 24.7891L29.675 23.3779C29.8478 23.0776 29.7781 22.6955 29.5117 22.4759L27.6191 20.9181C27.8573 20.2759 28.04 19.6081 28.1587 18.9176L30.5742 18.5164C30.9156 18.4584 31.1663 18.1635 31.1663 17.8164V16.1839C31.1663 15.8383 30.9156 15.5406 30.5742 15.4839L28.1587 15.0827C28.0402 14.3931 27.8569 13.7265 27.6191 13.085L29.5117 11.5244C29.7795 11.3048 29.8478 10.9227 29.675 10.6224L28.8587 9.21126C28.6859 8.91093 28.3212 8.77953 27.9982 8.90137L25.7072 9.75911C25.2639 9.22725 24.7726 8.73589 24.2407 8.29264L25.0985 6.00163C25.2203 5.67721 25.0875 5.31395 24.7886 5.14111L23.3774 4.32487C23.0771 4.15204 22.695 4.22179 22.4754 4.48812L20.9176 6.3807C20.2754 6.14249 19.6076 5.95983 18.9172 5.84115L18.516 3.42562C18.4579 3.0842 18.163 2.8335 17.8159 2.8335H16.1834ZM15.583 8.62744V12.9964C14.7549 13.2892 14.0379 13.8314 13.5305 14.5483C13.0231 15.2653 12.7503 16.1218 12.7497 17.0002C12.7497 17.261 12.7738 17.5213 12.8216 17.7777L9.03646 19.9608C8.6955 19.0385 8.49967 18.0442 8.49967 17.0002C8.49967 12.773 11.5531 9.29888 15.583 8.62744ZM18.4163 8.62744C22.4462 9.29888 25.4997 12.773 25.4997 17.0002C25.4997 18.0455 25.3019 19.0404 24.9601 19.9635L21.175 17.7749C21.2235 17.5195 21.2485 17.2602 21.2497 17.0002C21.2484 16.1223 20.9754 15.2664 20.4681 14.55C19.9607 13.8335 19.244 13.2918 18.4163 12.9992V8.62744ZM19.7583 20.2264L23.5573 22.4206C22.0011 24.3045 19.6469 25.5002 16.9997 25.5002C14.3525 25.5002 11.9983 24.3045 10.4421 22.4206L14.2383 20.2292C15.0077 20.8876 15.987 21.2497 16.9997 21.2502C18.0118 21.2483 18.99 20.8852 19.7583 20.2264V20.2264Z" fill="#8D8D8D"/>
</svg>
