<svg width="64" height="64" viewBox="0 0 64 64" fill="none" xmlns="http://www.w3.org/2000/svg">
<path d="M30.4636 5.33337C29.8129 5.33337 29.2525 5.80529 29.1459 6.44796L28.3907 10.9948C27.0927 11.218 25.8378 11.5629 24.6302 12.0105L21.6927 8.44796C21.2794 7.94396 20.5602 7.81267 19.9948 8.14067L17.3386 9.67712C16.7732 10.0025 16.5259 10.6889 16.7552 11.2969L18.3698 15.6094C17.3687 16.4438 16.4438 17.3687 15.6094 18.3698L11.2969 16.7552C10.6889 16.5259 10.0025 16.7732 9.67712 17.3386L8.14067 19.9948C7.81267 20.5602 7.94396 21.2794 8.44796 21.6927L12.0105 24.6302C11.5629 25.8378 11.218 27.0927 10.9948 28.3907L6.44796 29.1459C5.80529 29.2552 5.33337 29.8102 5.33337 30.4636V33.5365C5.33337 34.1872 5.80529 34.7475 6.44796 34.8542L10.9948 35.6094C11.218 36.9074 11.5629 38.1622 12.0105 39.3698L8.44796 42.3073C7.94396 42.7207 7.81533 43.4399 8.14067 44.0053L9.67712 46.6615C10.0025 47.2268 10.6889 47.4742 11.2969 47.2448L15.6094 45.6303C16.4438 46.6314 17.3687 47.5563 18.3698 48.3907L16.7552 52.7032C16.5259 53.3138 16.7759 53.9976 17.3386 54.323L19.9948 55.8594C20.5602 56.1848 21.2794 56.0535 21.6927 55.5521L24.625 51.9896C25.834 52.438 27.091 52.7819 28.3907 53.0053L29.1459 57.5521C29.2552 58.1948 29.8102 58.6667 30.4636 58.6667H33.5365C34.1872 58.6667 34.7475 58.1948 34.8542 57.5521L35.6094 53.0053C36.9074 52.7821 38.1622 52.4372 39.3698 51.9896L42.3073 55.5521C42.7207 56.0561 43.4399 56.1848 44.0053 55.8594L46.6615 54.323C47.2268 53.9976 47.4742 53.3112 47.2448 52.7032L45.6303 48.3907C46.6314 47.5563 47.5563 46.6314 48.3907 45.6303L52.7032 47.2448C53.3138 47.4742 53.9976 47.2242 54.323 46.6615L55.8594 44.0053C56.1848 43.4399 56.0535 42.7207 55.5521 42.3073L51.9896 39.375C52.438 38.166 52.7819 36.9091 53.0053 35.6094L57.5521 34.8542C58.1948 34.7449 58.6667 34.1898 58.6667 33.5365V30.4636C58.6667 29.8129 58.1948 29.2525 57.5521 29.1459L53.0053 28.3907C52.7821 27.0927 52.4372 25.8378 51.9896 24.6302L55.5521 21.6927C56.0561 21.2794 56.1848 20.5602 55.8594 19.9948L54.323 17.3386C53.9976 16.7732 53.3112 16.5259 52.7032 16.7552L48.3907 18.3698C47.5563 17.3687 46.6314 16.4438 45.6303 15.6094L47.2448 11.2969C47.4742 10.6862 47.2242 10.0025 46.6615 9.67712L44.0053 8.14067C43.4399 7.81533 42.7207 7.94662 42.3073 8.44796L39.375 12.0105C38.166 11.5621 36.9091 11.2182 35.6094 10.9948L34.8542 6.44796C34.7449 5.80529 34.1898 5.33337 33.5365 5.33337H30.4636ZM29.3334 16.2396V24.4636C27.7746 25.0147 26.4249 26.0352 25.4698 27.3848C24.5147 28.7344 24.0013 30.3467 24 32C24.0002 32.491 24.0455 32.9809 24.1355 33.4636L17.0105 37.573C16.3687 35.8369 16 33.9653 16 32C16 24.0431 21.7477 17.5035 29.3334 16.2396ZM34.6667 16.2396C42.2524 17.5035 48 24.0431 48 32C48 33.9677 47.6277 35.8404 46.9844 37.5782L39.8594 33.4584C39.9508 32.9776 39.9979 32.4894 40 32C39.9977 30.3476 39.4838 28.7364 38.5288 27.3879C37.5738 26.0393 36.2246 25.0196 34.6667 24.4688V16.2396ZM37.1927 38.073L44.3438 42.2032C41.4144 45.7494 36.983 48 32 48C27.017 48 22.5857 45.7494 19.6563 42.2032L26.8021 38.0782C28.2504 39.3176 30.0938 39.9992 32 40C33.9052 39.9965 35.7465 39.3131 37.1927 38.073V38.073Z" fill="#293039"/>
</svg>
