<svg width="64" height="64" viewBox="0 0 64 64" fill="none" xmlns="http://www.w3.org/2000/svg">
<g clip-path="url(#clip0)">
<path d="M16 26.6665L24 26.6665L24 37.3331C24 38.8059 25.1939 39.9998 26.6666 39.9998L37.3333 39.9998C38.8061 39.9999 40 38.806 40 37.3333L40 26.6666L48 26.6666C50.1975 26.6666 51.4518 24.1579 50.1334 22.4L34.1334 1.06663C33.0668 -0.355615 30.9334 -0.355616 29.8668 1.06663L13.8668 22.4C12.5483 24.1579 13.8025 26.6665 16 26.6665ZM32 7.11101L42.6666 21.3333L37.3333 21.3333C35.8605 21.3333 34.6666 22.5271 34.6666 23.9999L34.6666 34.6665L29.3333 34.6665L29.3333 23.9999C29.3333 22.5271 28.1394 21.3333 26.6666 21.3333L21.3333 21.3333L32 7.11101Z" fill="#293039"/>
<path d="M37.3334 42.6665L26.6667 42.6665C25.194 42.6665 24.0001 43.8604 24.0001 45.3331C24.0001 46.8059 25.194 47.9998 26.6667 47.9998L37.3334 47.9998C38.8061 47.9999 40 46.806 40 45.3333C40 43.8605 38.8061 42.6665 37.3334 42.6665Z" fill="#293039"/>
<path d="M37.3334 50.6665L26.6667 50.6665C25.194 50.6665 24.0001 51.8604 24.0001 53.3331C24 54.806 25.1939 55.9999 26.6666 55.9999L37.3332 55.9999C38.8061 55.9999 40 54.806 40 53.3333C40 51.8605 38.8061 50.6665 37.3334 50.6665Z" fill="#293039"/>
<path d="M37.3334 58.6665L26.6668 58.6665C25.194 58.6665 24.0001 59.8604 24.0001 61.3331C24 62.806 25.1939 63.9999 26.6666 63.9999L37.3333 63.9999C38.8061 63.9999 40 62.806 40 61.3333C40 59.8605 38.8061 58.6665 37.3334 58.6665Z" fill="#293039"/>
</g>
<defs>
<clipPath id="clip0">
<rect width="64" height="64" fill="white"/>
</clipPath>
</defs>
</svg>
