<svg width="512" height="512" viewBox="0 0 512 512" fill="none" xmlns="http://www.w3.org/2000/svg">
<g clip-path="url(#clip0)">
<path d="M128 213.332L192 213.333L192 298.665C192 310.447 201.551 319.998 213.333 319.998L298.666 319.998C310.449 319.999 320 310.449 320 298.667L320 213.334L384 213.334C401.58 213.334 411.614 193.264 401.067 179.201L273.067 8.5335C264.534 -2.8445 247.467 -2.84451 238.934 8.53349L110.934 179.2C100.386 193.263 110.42 213.332 128 213.332ZM256 56.8885L341.333 170.666L298.666 170.666C286.884 170.666 277.333 180.218 277.333 192L277.333 277.332L234.666 277.332L234.666 191.999C234.666 180.217 225.115 170.666 213.333 170.666L170.666 170.666L256 56.8885Z" fill="#293039"/>
<path d="M298.667 341.332L213.334 341.332C201.552 341.332 192.001 350.883 192.001 362.665C192.001 374.447 201.552 383.998 213.334 383.998L298.667 383.998C310.449 383.999 320 374.449 320 362.667C320 350.885 310.449 341.332 298.667 341.332Z" fill="#293039"/>
<path d="M298.667 405.333L213.334 405.332C201.552 405.332 192.001 414.883 192.001 426.665C192 438.448 201.551 447.999 213.333 447.999L298.666 448C310.449 448 320 438.449 320 426.667C320 414.885 310.449 405.333 298.667 405.333Z" fill="#293039"/>
<path d="M298.667 469.333L213.334 469.333C201.552 469.333 192.001 478.884 192.001 490.666C192 502.449 201.551 512 213.333 512L298.666 512C310.449 512 320 502.449 320 490.667C320 478.885 310.449 469.333 298.667 469.333Z" fill="#293039"/>
</g>
<defs>
<clipPath id="clip0">
<rect width="512" height="512" fill="white"/>
</clipPath>
</defs>
</svg>
